<?xml version="1.0" encoding="UTF-8"?>
<svg xmlns="http://www.w3.org/2000/svg" xmlns:xlink="http://www.w3.org/1999/xlink" width="1280pt" height="720pt" viewBox="0 0 1280 720" version="1.1">
<defs>
<g>
<symbol overflow="visible" id="glyph0-0">
<path style="stroke:none;" d="M 1.667969 0 L 1.667969 -10 L 11.667969 -10 L 11.667969 0 Z M 2.5 -0.832031 L 10.832031 -0.832031 L 10.832031 -9.167969 L 2.5 -9.167969 Z "/>
</symbol>
<symbol overflow="visible" id="glyph0-1">
<path style="stroke:none;" d="M 3.476562 0 L 0.34375 0 L 0.34375 -0.429688 C 0.441406 -0.433594 0.546875 -0.445312 0.664062 -0.457031 C 0.773438 -0.46875 0.867188 -0.484375 0.945312 -0.507812 C 1.0625 -0.542969 1.152344 -0.609375 1.214844 -0.710938 C 1.273438 -0.804688 1.304688 -0.933594 1.308594 -1.09375 L 1.308594 -8.535156 C 1.304688 -8.6875 1.273438 -8.832031 1.207031 -8.972656 C 1.136719 -9.105469 1.046875 -9.214844 0.945312 -9.296875 C 0.863281 -9.347656 0.722656 -9.394531 0.515625 -9.4375 C 0.304688 -9.480469 0.136719 -9.507812 0.0117188 -9.519531 L 0.0117188 -9.933594 L 2.429688 -10.078125 L 2.519531 -9.980469 L 2.519531 -1.171875 C 2.519531 -1.019531 2.546875 -0.894531 2.601562 -0.796875 C 2.65625 -0.699219 2.746094 -0.625 2.878906 -0.574219 C 2.96875 -0.527344 3.0625 -0.492188 3.160156 -0.472656 C 3.25 -0.449219 3.355469 -0.433594 3.476562 -0.429688 Z "/>
</symbol>
<symbol overflow="visible" id="glyph0-2">
<path style="stroke:none;" d="M 6.730469 -3.273438 C 6.726562 -2.820312 6.65625 -2.375 6.515625 -1.941406 C 6.371094 -1.503906 6.164062 -1.136719 5.902344 -0.832031 C 5.597656 -0.484375 5.25 -0.226562 4.859375 -0.0585938 C 4.460938 0.109375 4.019531 0.191406 3.53125 0.195312 C 3.121094 0.191406 2.730469 0.117188 2.363281 -0.0351562 C 1.992188 -0.1875 1.667969 -0.410156 1.382812 -0.710938 C 1.097656 -0.996094 0.871094 -1.351562 0.707031 -1.773438 C 0.539062 -2.191406 0.457031 -2.660156 0.457031 -3.183594 C 0.457031 -4.183594 0.746094 -5.003906 1.332031 -5.644531 C 1.910156 -6.277344 2.675781 -6.597656 3.628906 -6.601562 C 4.527344 -6.597656 5.269531 -6.292969 5.855469 -5.691406 C 6.433594 -5.082031 6.726562 -4.277344 6.730469 -3.273438 Z M 5.382812 -3.261719 C 5.378906 -3.585938 5.347656 -3.929688 5.285156 -4.292969 C 5.21875 -4.652344 5.121094 -4.960938 4.992188 -5.214844 C 4.851562 -5.480469 4.667969 -5.695312 4.445312 -5.859375 C 4.214844 -6.023438 3.9375 -6.105469 3.617188 -6.105469 C 3.277344 -6.105469 2.992188 -6.023438 2.757812 -5.859375 C 2.519531 -5.695312 2.328125 -5.46875 2.183594 -5.183594 C 2.039062 -4.914062 1.941406 -4.613281 1.886719 -4.277344 C 1.832031 -3.9375 1.804688 -3.609375 1.804688 -3.292969 C 1.804688 -2.875 1.835938 -2.488281 1.902344 -2.136719 C 1.96875 -1.78125 2.078125 -1.464844 2.226562 -1.191406 C 2.375 -0.910156 2.558594 -0.691406 2.785156 -0.535156 C 3.003906 -0.375 3.28125 -0.296875 3.617188 -0.300781 C 4.15625 -0.296875 4.585938 -0.558594 4.90625 -1.085938 C 5.21875 -1.609375 5.378906 -2.335938 5.382812 -3.261719 Z "/>
</symbol>
<symbol overflow="visible" id="glyph0-3">
<path style="stroke:none;" d="M 7.273438 0 L 5.335938 0 C 4.996094 -0.488281 4.632812 -1.011719 4.246094 -1.574219 C 3.859375 -2.132812 3.457031 -2.675781 3.039062 -3.207031 L 2.507812 -2.707031 L 2.507812 -1.183594 C 2.507812 -1.027344 2.535156 -0.898438 2.589844 -0.796875 C 2.644531 -0.695312 2.734375 -0.621094 2.863281 -0.574219 C 2.964844 -0.527344 3.066406 -0.492188 3.164062 -0.472656 C 3.257812 -0.449219 3.367188 -0.433594 3.496094 -0.429688 L 3.496094 0 L 0.351562 0 L 0.351562 -0.429688 C 0.449219 -0.433594 0.550781 -0.445312 0.660156 -0.457031 C 0.765625 -0.46875 0.855469 -0.484375 0.933594 -0.507812 C 1.050781 -0.542969 1.140625 -0.609375 1.203125 -0.710938 C 1.261719 -0.804688 1.292969 -0.933594 1.296875 -1.09375 L 1.296875 -8.558594 C 1.292969 -8.71875 1.261719 -8.871094 1.195312 -9.011719 C 1.125 -9.152344 1.035156 -9.257812 0.929688 -9.335938 C 0.835938 -9.402344 0.695312 -9.449219 0.503906 -9.472656 C 0.308594 -9.492188 0.152344 -9.507812 0.0390625 -9.519531 L 0.0390625 -9.933594 L 2.414062 -10.078125 L 2.507812 -9.980469 L 2.507812 -3.1875 C 2.84375 -3.523438 3.207031 -3.886719 3.605469 -4.277344 C 3.996094 -4.667969 4.328125 -5.011719 4.597656 -5.316406 C 4.628906 -5.351562 4.667969 -5.402344 4.710938 -5.46875 C 4.75 -5.53125 4.769531 -5.585938 4.773438 -5.625 C 4.769531 -5.742188 4.675781 -5.828125 4.488281 -5.882812 C 4.300781 -5.9375 4.117188 -5.976562 3.945312 -6.003906 L 3.945312 -6.417969 L 6.769531 -6.417969 L 6.769531 -6.015625 C 6.402344 -5.902344 6.082031 -5.765625 5.800781 -5.605469 C 5.519531 -5.441406 5.304688 -5.296875 5.164062 -5.167969 C 5.054688 -5.082031 4.90625 -4.941406 4.71875 -4.746094 C 4.523438 -4.550781 4.257812 -4.292969 3.917969 -3.980469 C 4.273438 -3.535156 4.675781 -3.011719 5.121094 -2.402344 C 5.566406 -1.789062 5.890625 -1.34375 6.09375 -1.074219 C 6.28125 -0.816406 6.449219 -0.652344 6.605469 -0.574219 C 6.753906 -0.496094 6.976562 -0.445312 7.273438 -0.429688 Z "/>
</symbol>
<symbol overflow="visible" id="glyph0-4">
<path style="stroke:none;" d="M 4.707031 -3.144531 C 4.878906 -2.984375 5.015625 -2.804688 5.117188 -2.601562 C 5.210938 -2.398438 5.261719 -2.148438 5.261719 -1.855469 C 5.261719 -1.257812 5.039062 -0.773438 4.59375 -0.398438 C 4.148438 -0.0234375 3.570312 0.164062 2.863281 0.167969 C 2.488281 0.164062 2.144531 0.101562 1.832031 -0.03125 C 1.515625 -0.164062 1.292969 -0.289062 1.160156 -0.402344 L 1.027344 0.0195312 L 0.539062 0.0195312 L 0.476562 -2.214844 L 0.925781 -2.214844 C 0.957031 -2.042969 1.027344 -1.84375 1.144531 -1.617188 C 1.253906 -1.390625 1.390625 -1.183594 1.554688 -1.003906 C 1.71875 -0.808594 1.921875 -0.648438 2.164062 -0.519531 C 2.398438 -0.386719 2.664062 -0.320312 2.960938 -0.324219 C 3.375 -0.320312 3.699219 -0.417969 3.925781 -0.609375 C 4.152344 -0.796875 4.265625 -1.066406 4.265625 -1.425781 C 4.265625 -1.605469 4.226562 -1.765625 4.15625 -1.898438 C 4.082031 -2.03125 3.976562 -2.144531 3.839844 -2.246094 C 3.691406 -2.339844 3.515625 -2.429688 3.3125 -2.515625 C 3.101562 -2.59375 2.871094 -2.675781 2.617188 -2.753906 C 2.410156 -2.8125 2.183594 -2.894531 1.9375 -3.003906 C 1.683594 -3.109375 1.46875 -3.234375 1.296875 -3.378906 C 1.101562 -3.527344 0.945312 -3.714844 0.824219 -3.9375 C 0.703125 -4.15625 0.644531 -4.414062 0.644531 -4.71875 C 0.644531 -5.242188 0.839844 -5.6875 1.230469 -6.054688 C 1.621094 -6.414062 2.144531 -6.597656 2.800781 -6.601562 C 3.050781 -6.597656 3.304688 -6.566406 3.570312 -6.503906 C 3.828125 -6.4375 4.042969 -6.359375 4.210938 -6.269531 L 4.363281 -6.609375 L 4.832031 -6.609375 L 4.929688 -4.542969 L 4.480469 -4.542969 C 4.386719 -5.003906 4.191406 -5.382812 3.890625 -5.671875 C 3.585938 -5.960938 3.214844 -6.105469 2.785156 -6.105469 C 2.425781 -6.105469 2.148438 -6.015625 1.945312 -5.835938 C 1.742188 -5.65625 1.640625 -5.4375 1.640625 -5.1875 C 1.640625 -4.988281 1.671875 -4.828125 1.742188 -4.699219 C 1.804688 -4.566406 1.90625 -4.453125 2.042969 -4.367188 C 2.171875 -4.277344 2.335938 -4.199219 2.535156 -4.125 C 2.730469 -4.046875 2.976562 -3.960938 3.269531 -3.867188 C 3.554688 -3.773438 3.824219 -3.664062 4.078125 -3.546875 C 4.332031 -3.421875 4.539062 -3.289062 4.707031 -3.144531 Z "/>
</symbol>
<symbol overflow="visible" id="glyph0-5">
<path style="stroke:none;" d=""/>
</symbol>
<symbol overflow="visible" id="glyph0-6">
<path style="stroke:none;" d="M 3.582031 0 L 0.480469 0 L 0.480469 -0.429688 C 0.582031 -0.433594 0.683594 -0.441406 0.789062 -0.453125 C 0.894531 -0.460938 0.988281 -0.480469 1.066406 -0.507812 C 1.1875 -0.542969 1.277344 -0.609375 1.335938 -0.710938 C 1.394531 -0.804688 1.421875 -0.933594 1.425781 -1.09375 L 1.425781 -5.054688 C 1.421875 -5.191406 1.390625 -5.316406 1.332031 -5.433594 C 1.265625 -5.542969 1.179688 -5.640625 1.066406 -5.722656 C 0.984375 -5.773438 0.863281 -5.816406 0.710938 -5.855469 C 0.550781 -5.886719 0.410156 -5.910156 0.28125 -5.925781 L 0.28125 -6.355469 L 2.546875 -6.496094 L 2.636719 -6.40625 L 2.636719 -1.171875 C 2.636719 -1.019531 2.664062 -0.890625 2.722656 -0.792969 C 2.78125 -0.691406 2.875 -0.621094 3 -0.574219 C 3.09375 -0.535156 3.183594 -0.5 3.277344 -0.476562 C 3.363281 -0.449219 3.464844 -0.433594 3.582031 -0.429688 Z M 2.765625 -9.03125 C 2.765625 -8.78125 2.683594 -8.566406 2.519531 -8.382812 C 2.355469 -8.195312 2.15625 -8.101562 1.921875 -8.105469 C 1.699219 -8.101562 1.503906 -8.191406 1.34375 -8.367188 C 1.179688 -8.542969 1.101562 -8.742188 1.101562 -8.972656 C 1.101562 -9.207031 1.179688 -9.414062 1.34375 -9.59375 C 1.503906 -9.769531 1.699219 -9.859375 1.921875 -9.863281 C 2.167969 -9.859375 2.367188 -9.777344 2.527344 -9.613281 C 2.683594 -9.445312 2.765625 -9.25 2.765625 -9.03125 Z "/>
</symbol>
<symbol overflow="visible" id="glyph0-7">
<path style="stroke:none;" d="M 6.171875 -1.511719 C 5.898438 -0.996094 5.539062 -0.585938 5.089844 -0.285156 C 4.636719 0.015625 4.117188 0.164062 3.535156 0.167969 C 3.015625 0.164062 2.5625 0.0742188 2.175781 -0.105469 C 1.785156 -0.285156 1.46875 -0.53125 1.21875 -0.847656 C 0.964844 -1.15625 0.773438 -1.519531 0.652344 -1.941406 C 0.527344 -2.355469 0.46875 -2.796875 0.46875 -3.261719 C 0.46875 -3.675781 0.535156 -4.085938 0.667969 -4.488281 C 0.800781 -4.886719 0.992188 -5.246094 1.25 -5.574219 C 1.492188 -5.878906 1.800781 -6.128906 2.171875 -6.316406 C 2.535156 -6.503906 2.945312 -6.597656 3.40625 -6.601562 C 3.871094 -6.597656 4.273438 -6.523438 4.609375 -6.378906 C 4.941406 -6.230469 5.210938 -6.027344 5.421875 -5.773438 C 5.617188 -5.527344 5.765625 -5.242188 5.867188 -4.914062 C 5.960938 -4.582031 6.011719 -4.222656 6.015625 -3.839844 L 6.015625 -3.410156 L 1.765625 -3.410156 C 1.761719 -2.988281 1.800781 -2.605469 1.882812 -2.261719 C 1.960938 -1.917969 2.089844 -1.613281 2.265625 -1.355469 C 2.433594 -1.097656 2.65625 -0.898438 2.929688 -0.757812 C 3.203125 -0.609375 3.527344 -0.539062 3.90625 -0.539062 C 4.289062 -0.539062 4.621094 -0.628906 4.902344 -0.808594 C 5.179688 -0.988281 5.449219 -1.3125 5.714844 -1.789062 Z M 4.734375 -3.957031 C 4.734375 -4.195312 4.710938 -4.457031 4.671875 -4.734375 C 4.625 -5.011719 4.558594 -5.242188 4.472656 -5.433594 C 4.371094 -5.628906 4.234375 -5.792969 4.0625 -5.917969 C 3.882812 -6.042969 3.660156 -6.105469 3.390625 -6.105469 C 2.933594 -6.105469 2.554688 -5.914062 2.253906 -5.539062 C 1.953125 -5.15625 1.789062 -4.628906 1.765625 -3.957031 Z "/>
</symbol>
</g>
</defs>
<g id="surface11">
<g style="fill:rgb(100%,100%,100%);fill-opacity:1;">
  <use xlink:href="#glyph0-1" x="30" y="32.226562"/>
  <use xlink:href="#glyph0-2" x="34" y="32.226562"/>
  <use xlink:href="#glyph0-2" x="41" y="32.226562"/>
  <use xlink:href="#glyph0-3" x="48" y="32.226562"/>
  <use xlink:href="#glyph0-4" x="55" y="32.226562"/>
  <use xlink:href="#glyph0-5" x="61" y="32.226562"/>
  <use xlink:href="#glyph0-1" x="64" y="32.226562"/>
  <use xlink:href="#glyph0-6" x="68" y="32.226562"/>
  <use xlink:href="#glyph0-3" x="72" y="32.226562"/>
  <use xlink:href="#glyph0-7" x="79" y="32.226562"/>
</g>
</g>
</svg>
